<svg width="149" height="57" viewBox="0 0 149 57" fill="none" xmlns="http://www.w3.org/2000/svg">
<path d="M28.5 7.125C22.6186 7.125 17.8125 11.9311 17.8125 17.8125C17.8125 19.6045 18.2503 21.2798 19.0371 22.7666C15.7854 21.9767 11.831 21.375 7.125 21.375H4.84277L5.39941 23.6016L10.7432 44.9766L11.0771 46.3125H12.4688C18.5335 46.3125 22.2669 47.1789 24.4365 47.9824C25.5213 48.3842 26.2107 48.7813 26.6074 49.04C27.0041 49.2987 27.0527 49.3184 27.0527 49.3184L27.5537 49.875H28.333H28.667H29.4463L29.9473 49.3184C29.9473 49.3184 29.9959 49.2987 30.3926 49.04C30.7893 48.7813 31.4787 48.3842 32.5635 47.9824C34.7331 47.1789 38.4665 46.3125 44.5312 46.3125H45.9229L46.2568 44.9766L51.6006 23.6016L52.1572 21.375H49.875C45.1954 21.375 41.2382 21.942 38.0186 22.7109C38.7829 21.2408 39.1875 19.5769 39.1875 17.8125C39.1875 11.9311 34.3814 7.125 28.5 7.125ZM28.5 10.6875C32.4561 10.6875 35.625 13.8564 35.625 17.8125C35.625 21.7686 32.4561 24.9375 28.5 24.9375C24.5439 24.9375 21.375 21.7686 21.375 17.8125C21.375 13.8564 24.5439 10.6875 28.5 10.6875ZM9.46289 25.1602C15.0015 25.4336 19.5268 26.3944 22.4883 27.498C24.8772 28.3883 26.0509 29.0759 26.7188 29.502V45.0879C26.4019 44.942 26.1081 44.7875 25.7168 44.6426C23.3063 43.7498 19.3595 43.0005 13.8604 42.8613L9.46289 25.1602ZM47.5371 25.1602L43.1396 42.8613C37.6405 43.0005 33.6937 43.7498 31.2832 44.6426C30.8919 44.7875 30.5981 44.942 30.2812 45.0879V29.502C30.9524 29.0696 32.1207 28.3738 34.4561 27.498C37.3973 26.3951 41.9313 25.4324 47.5371 25.1602Z" fill="#FB923C"/>
<path d="M64.72 36.66C63.5333 36.66 62.5733 36.3 61.84 35.58C61.12 34.86 60.76 33.9133 60.76 32.74V30.46C60.76 29.6467 60.9333 28.9333 61.28 28.32C61.6267 27.6933 62.1133 27.2133 62.74 26.88C63.3667 26.5333 64.0933 26.36 64.92 26.36H66.02C66.4067 26.36 66.8 26.4467 67.2 26.62C67.6 26.78 67.9333 27 68.2 27.28V22.5H70.92V36.5H68.4V35.18C68.1333 35.62 67.7733 35.98 67.32 36.26C66.8667 36.5267 66.3933 36.66 65.9 36.66H64.72ZM66.2 34.32C66.7467 34.32 67.2 34.1267 67.56 33.74C67.9333 33.34 68.1467 32.8133 68.2 32.16V30.42C68.1067 29.9 67.9 29.4867 67.58 29.18C67.2733 28.86 66.9067 28.7 66.48 28.7H65.26C64.7267 28.7 64.2933 28.88 63.96 29.24C63.64 29.6 63.48 30.0733 63.48 30.66V32.54C63.48 33.0733 63.6267 33.5067 63.92 33.84C64.2133 34.16 64.5933 34.32 65.06 34.32H66.2ZM76.7703 36.66C75.557 36.66 74.5836 36.34 73.8503 35.7C73.117 35.06 72.7503 34.22 72.7503 33.18H75.4303C75.4303 33.54 75.5503 33.8333 75.7903 34.06C76.0436 34.2733 76.3703 34.38 76.7703 34.38H78.5703C79.3703 34.38 79.7703 34.16 79.7703 33.72V33.38C79.7703 33.2467 79.7036 33.1267 79.5703 33.02C79.437 32.9 79.257 32.82 79.0303 32.78L75.5703 32.18C74.757 32.0467 74.1103 31.76 73.6303 31.32C73.1636 30.8667 72.9303 30.34 72.9303 29.74V29.08C72.9303 28.2267 73.277 27.56 73.9703 27.08C74.677 26.6 75.657 26.36 76.9103 26.36H78.4703C79.5903 26.36 80.4903 26.66 81.1703 27.26C81.8636 27.8467 82.2103 28.6267 82.2103 29.6H79.5303C79.5303 29.3067 79.4303 29.0733 79.2303 28.9C79.0436 28.7267 78.7903 28.64 78.4703 28.64H76.9503C76.0836 28.64 75.6503 28.84 75.6503 29.24V29.56C75.6503 29.7067 75.7036 29.8333 75.8103 29.94C75.9303 30.0333 76.097 30.1 76.3103 30.14L79.9503 30.8C80.7103 30.9333 81.3236 31.22 81.7903 31.66C82.257 32.0867 82.4903 32.5733 82.4903 33.12V33.84C82.4903 34.7067 82.1303 35.3933 81.4103 35.9C80.7036 36.4067 79.757 36.66 78.5703 36.66H76.7703ZM95.6069 26.36C96.6202 26.36 97.4335 26.6933 98.0469 27.36C98.6602 28.0133 98.9669 28.8733 98.9669 29.94V36.5H96.2469V29.94C96.2469 29.5667 96.1602 29.2733 95.9869 29.06C95.8135 28.8333 95.5869 28.72 95.3069 28.72H94.4469C94.0735 28.72 93.7469 28.86 93.4669 29.14C93.1869 29.4067 93.0135 29.7667 92.9469 30.22V36.5H90.2269V29.96C90.2269 29.5867 90.1402 29.2867 89.9669 29.06C89.7935 28.8333 89.5669 28.72 89.2869 28.72H88.5069C88.1202 28.72 87.7802 28.8933 87.4869 29.24C87.1935 29.5867 87.0069 30.04 86.9269 30.6V36.5H84.2069V26.52H86.7269V27.68C86.9669 27.28 87.2735 26.96 87.6469 26.72C88.0335 26.48 88.4202 26.36 88.8069 26.36H89.9269C90.4069 26.36 90.8402 26.4867 91.2269 26.74C91.6269 26.9933 91.9402 27.3467 92.1669 27.8C92.4602 27.3467 92.8069 26.9933 93.2069 26.74C93.6202 26.4867 94.0535 26.36 94.5069 26.36H95.6069Z" fill="white"/>
<path d="M101.24 22.5H108.68C109.893 22.5 110.867 22.8267 111.6 23.48C112.347 24.1333 112.72 24.9933 112.72 26.06V27.46C112.72 28.1533 112.52 28.76 112.12 29.28C111.733 29.7867 111.167 30.1733 110.42 30.44V30.48C110.847 30.76 111.167 31.08 111.38 31.44C111.607 31.8 111.827 32.3 112.04 32.94L113.16 36.5H110.3L109.24 33.18C109.067 32.6067 108.827 32.18 108.52 31.9C108.213 31.62 107.833 31.48 107.38 31.48H104V36.5H101.24V22.5ZM108.16 29.1C108.72 29.1 109.16 28.9533 109.48 28.66C109.8 28.3533 109.96 27.96 109.96 27.48V26.18C109.96 25.7933 109.84 25.4867 109.6 25.26C109.36 25.02 109.04 24.9 108.64 24.9H104V29.1H108.16ZM118.595 36.66C117.755 36.66 117.008 36.5067 116.355 36.2C115.715 35.88 115.215 35.44 114.855 34.88C114.495 34.3067 114.315 33.6533 114.315 32.92V30.34C114.315 29.5533 114.495 28.86 114.855 28.26C115.215 27.66 115.715 27.1933 116.355 26.86C117.008 26.5267 117.755 26.36 118.595 26.36H120.195C121.475 26.36 122.501 26.72 123.275 27.44C124.048 28.16 124.435 29.12 124.435 30.32V32.44H117.035V32.92C117.035 33.36 117.175 33.7133 117.455 33.98C117.735 34.2467 118.115 34.38 118.595 34.38H120.155C120.621 34.38 120.995 34.28 121.275 34.08C121.568 33.8667 121.715 33.5933 121.715 33.26H124.395C124.395 33.9267 124.215 34.52 123.855 35.04C123.495 35.56 122.988 35.96 122.335 36.24C121.695 36.52 120.955 36.66 120.115 36.66H118.595ZM121.755 30.48V30.32C121.755 29.8 121.615 29.3867 121.335 29.08C121.055 28.76 120.681 28.6 120.215 28.6H118.595C118.115 28.6 117.728 28.7667 117.435 29.1C117.141 29.4333 116.995 29.8733 116.995 30.42V30.48H121.755ZM129.437 36.66C128.397 36.66 127.557 36.4 126.917 35.88C126.277 35.36 125.957 34.6733 125.957 33.82V33.08C125.957 32.24 126.291 31.5667 126.957 31.06C127.624 30.54 128.504 30.28 129.597 30.28H130.817C131.164 30.28 131.537 30.3267 131.937 30.42C132.337 30.5133 132.704 30.64 133.037 30.8V29.76C133.037 29.4267 132.924 29.16 132.697 28.96C132.484 28.7467 132.197 28.64 131.837 28.64H130.117C129.744 28.64 129.444 28.7267 129.217 28.9C128.991 29.0733 128.877 29.3067 128.877 29.6H126.237C126.237 28.6267 126.591 27.8467 127.297 27.26C128.017 26.66 128.957 26.36 130.117 26.36H131.837C133.011 26.36 133.957 26.6733 134.677 27.3C135.397 27.9133 135.757 28.7333 135.757 29.76V36.5H133.237V35.3C132.917 35.7133 132.524 36.0467 132.057 36.3C131.591 36.54 131.131 36.66 130.677 36.66H129.437ZM130.877 34.58C131.371 34.58 131.811 34.4533 132.197 34.2C132.584 33.9467 132.864 33.6067 133.037 33.18V32.84C132.824 32.68 132.524 32.5533 132.137 32.46C131.764 32.3667 131.364 32.32 130.937 32.32H129.677C129.357 32.32 129.097 32.4 128.897 32.56C128.697 32.72 128.597 32.9333 128.597 33.2V33.72C128.597 33.9733 128.704 34.18 128.917 34.34C129.144 34.5 129.437 34.58 129.797 34.58H130.877ZM141.517 36.66C140.33 36.66 139.37 36.3 138.637 35.58C137.917 34.86 137.557 33.9133 137.557 32.74V30.46C137.557 29.6467 137.73 28.9333 138.077 28.32C138.424 27.6933 138.91 27.2133 139.537 26.88C140.164 26.5333 140.89 26.36 141.717 26.36H142.817C143.204 26.36 143.597 26.4467 143.997 26.62C144.397 26.78 144.73 27 144.997 27.28V22.5H147.717V36.5H145.197V35.18C144.93 35.62 144.57 35.98 144.117 36.26C143.664 36.5267 143.19 36.66 142.697 36.66H141.517ZM142.997 34.32C143.544 34.32 143.997 34.1267 144.357 33.74C144.73 33.34 144.944 32.8133 144.997 32.16V30.42C144.904 29.9 144.697 29.4867 144.377 29.18C144.07 28.86 143.704 28.7 143.277 28.7H142.057C141.524 28.7 141.09 28.88 140.757 29.24C140.437 29.6 140.277 30.0733 140.277 30.66V32.54C140.277 33.0733 140.424 33.5067 140.717 33.84C141.01 34.16 141.39 34.32 141.857 34.32H142.997Z" fill="#FB923C"/>
</svg>
